PathFileType	4	(X/Y/Z)	/Users/itak/Documents/Research/Walk-IL/dataset/trc/00149_00007.trc
DataRate	CameraRate	NumFrames	NumMarkers	Units	OrigDataRate	OrigDataStartFrame	OrigNumFrames
100.000000	100.000000	4	54	mm	100.000000	196	523
Frame#	Time	RPSI			LPSI			L3			STRN			T10			C7			CLAV			RBAK			LBAK			LSHO			LUPA			LAEL			LAOL			LWTS			LWPS			LFRA			LIFD			LHPS			LHTS			RSHO			RUPA			RAEL			RAOL			RWTS			RWPS			RFRA			RIFD			RHTS			RHPS			RBHD			LFHD			RFHD			LBHD			LHIP			RHIP			RASI			LASI			LKNE			LTHI			LANK			LTIP			LTOE			LMT1			LMT5			LHEE			RKNE			RANK			RTIP			RTOE			RMT1			RMT5			RHEE			RTHI			*53			
		X1	Y1	Z1	X2	Y2	Z2	X3	Y3	Z3	X4	Y4	Z4	X5	Y5	Z5	X6	Y6	Z6	X7	Y7	Z7	X8	Y8	Z8	X9	Y9	Z9	X10	Y10	Z10	X11	Y11	Z11	X12	Y12	Z12	X13	Y13	Z13	X14	Y14	Z14	X15	Y15	Z15	X16	Y16	Z16	X17	Y17	Z17	X18	Y18	Z18	X19	Y19	Z19	X20	Y20	Z20	X21	Y21	Z21	X22	Y22	Z22	X23	Y23	Z23	X24	Y24	Z24	X25	Y25	Z25	X26	Y26	Z26	X27	Y27	Z27	X28	Y28	Z28	X29	Y29	Z29	X30	Y30	Z30	X31	Y31	Z31	X32	Y32	Z32	X33	Y33	Z33	X34	Y34	Z34	X35	Y35	Z35	X36	Y36	Z36	X37	Y37	Z37	X38	Y38	Z38	X39	Y39	Z39	X40	Y40	Z40	X41	Y41	Z41	X42	Y42	Z42	X43	Y43	Z43	X44	Y44	Z44	X45	Y45	Z45	X46	Y46	Z46	X47	Y47	Z47	X48	Y48	Z48	X49	Y49	Z49	X50	Y50	Z50	X51	Y51	Z51	X52	Y52	Z52	X53	Y53	Z53	X54	Y54	Z54	

197	1.96	-943.6583862304688	1113.2861328125	-489.9624938964844	-935.7200317382812	1113.33837890625	-625.6244506835938	-944.046630859375	1151.351806640625	-562.2921752929688	-717.652099609375	1337.77392578125	-545.0567626953125	-973.9625854492188	1300.702758789062	-569.985595703125	-923.8349609375	1591.497192382812	-577.421142578125	-747.9778442382812	1474.166137695312	-548.5661010742188	-994.0551147460938	1407.486694335938	-499.7966918945312	-916.9927978515625	1572.927856445312	-679.5689086914062	-823.4282836914062	1554.965454101562	-736.9251708984375	-843.213134765625	1425.845581054688	-813.3055419921875	-852.7056274414062	1205.775756835938	-833.8169555664062	-926.140380859375	1202.670654296875	-788.2750854492188	-794.4143676757812	937.685791015625	-774.0327758789062	-870.926513671875	922.3992919921875	-814.235595703125	-848.8475341796875	1088.017944335938	-835.2590942382812	-811.5176391601562	744.5771484375	-750.3807983398438	-852.656494140625	844.0003051757812	-808.9118041992188	-790.16845703125	847.2970581054688	-781.0523681640625	-891.4476318359375	1566.010864257812	-389.993896484375	-920.8599853515625	1493.310424804688	-330.594482421875	-958.2835083007812	1201.140625	-319.1097717285156	-945.4871826171875	1201.437622070312	-415.5704040527344	-832.97412109375	947.7527465820312	-313.0118103027344	-911.69482421875	936.9252319335938	-293.2430419921875	-943.167724609375	1126.605590820312	-300.9723510742188	-823.0062255859375	751.3404541015625	-331.1764831542969	-813.8120727539062	837.4368286132812	-306.3307495117188	-883.98828125	834.2968139648438	-286.4149780273438	-890.8458862304688	1754.1064453125	-492.2706604003906	-698.1333618164062	1820.827758789062	-572.553466796875	-731.0419311523438	1813.248901367188	-447.2404479980469	-864.5661010742188	1766.051879882812	-624.8054809570312	-845.3866577148438	1018.486267089844	-729.3202514648438	-822.0897216796875	1017.159729003906	-365.3594970703125	-740.3756103515625	1083.90576171875	-419.1990661621094	-733.8766479492188	1077.557250976562	-683.1883544921875	-863.1638793945312	506.0574340820312	-711.0803833007812	-866.9796142578125	660.3377075195312	-728.4500122070312	-1262.13037109375	144.3491668701172	-704.2626953125	-1089.558349609375	347.7643127441406	-731.1017456054688	-1097.9306640625	27.04866600036621	-629.4873657226562	-1154.599609375	58.73387908935547	-605.3837890625	-1182.828002929688	50.29998397827148	-714.939697265625	-1303.979125976562	203.5381164550781	-647.3223876953125	-729.749755859375	536.2103881835938	-432.8843994140625	-729.8944702148438	22.46950721740723	-503.8649291992188	-728.061279296875	400.6673278808594	-433.6799621582031	-496.5382080078125	53.78338623046875	-520.1074829101562	-547.1597290039062	42.44250106811523	-572.2787475585938	-601.9697875976562	39.94492340087891	-465.0186462402344	-777.5546875	27.76287841796875	-559.5101928710938	-767.6942749023438	807.2564697265625	-379.11669921875	nan	nan	nan	
198	1.97	-934.8901977539062	1114.05224609375	-488.5404968261719	-926.4623413085938	1113.874267578125	-624.1397705078125	-934.8837890625	1152.031005859375	-560.715576171875	-708.9562377929688	1338.985107421875	-542.0594482421875	-964.949951171875	1301.158447265625	-568.1451416015625	-916.123046875	1592.178833007812	-575.1243896484375	-739.8541259765625	1475.2626953125	-545.544189453125	-985.8524169921875	1407.760375976562	-497.8882141113281	-908.691162109375	1573.701171875	-677.234375	-814.7489624023438	1556.119384765625	-734.0987548828125	-833.8405151367188	1427.082397460938	-810.8362426757812	-842.4913330078125	1207.085815429688	-831.9139404296875	-916.3125610351562	1203.510986328125	-786.8452758789062	-781.6658935546875	939.851806640625	-771.4794311523438	-857.69091796875	923.4734497070312	-812.0997924804688	-837.6070556640625	1089.33544921875	-833.2810668945312	-796.3082885742188	746.598876953125	-747.7213134765625	-838.6185913085938	845.4584350585938	-806.5612182617188	-776.3196411132812	849.5419311523438	-778.3719482421875	-884.3152465820312	1566.638305664062	-387.5419311523438	-913.6968994140625	1493.742065429688	-328.332763671875	-949.6994018554688	1201.336059570312	-316.8469543457031	-936.668212890625	1201.701538085938	-413.3368530273438	-820.8390502929688	949.7470092773438	-310.0732727050781	-899.4876708984375	937.6776123046875	-290.6924438476562	-933.7552490234375	1126.897216796875	-298.613037109375	-807.7350463867188	753.4963989257812	-328.1319580078125	-799.9641723632812	839.7769775390625	-303.2225341796875	-870.205078125	835.495361328125	-283.714599609375	-883.8491821289062	1755.10791015625	-489.8794555664062	-690.8002319335938	1821.914184570312	-569.1729125976562	-724.3778686523438	1814.410278320312	-444.031494140625	-856.818115234375	1766.97021484375	-622.270263671875	-835.0717163085938	1019.191833496094	-727.2647705078125	-814.1011962890625	1017.910766601562	-363.27880859375	-731.9834594726562	1084.746459960938	-416.5234985351562	-724.3516235351562	1078.76904296875	-680.411376953125	-843.7223510742188	505.7259826660156	-711.4201049804688	-850.4893798828125	660.3508911132812	-728.0106811523438	-1251.10986328125	153.3406219482422	-707.4755249023438	-1072.765014648438	351.6965026855469	-732.5322265625	-1096.224487304688	26.05060195922852	-630.181396484375	-1149.819213867188	61.9381217956543	-607.2761840820312	-1177.4677734375	54.37952423095703	-716.775146484375	-1289.980346679688	214.7741088867188	-651.0768432617188	-725.2501220703125	535.9202270507812	-431.1419067382812	-729.6243896484375	22.51757621765137	-503.7682800292969	-724.7539672851562	400.3472595214844	-432.3488159179688	-495.6044311523438	51.98714447021484	-520.015380859375	-546.6256103515625	41.82315063476562	-572.517822265625	-601.4547119140625	39.46101760864258	-465.1303100585938	-777.361572265625	27.92705154418945	-559.2691650390625	-761.3883666992188	807.5189208984375	-377.2221374511719	nan	nan	nan	
199	1.98	-926.3683471679688	1114.657836914062	-487.1838684082031	-917.430419921875	1114.166137695312	-622.7205200195312	-925.994384765625	1152.445556640625	-559.2157592773438	-700.4534912109375	1339.968017578125	-539.1638793945312	-956.1099853515625	1301.482177734375	-566.3765258789062	-908.4397583007812	1592.725463867188	-572.8610229492188	-731.8392944335938	1476.145141601562	-542.6324462890625	-977.7860717773438	1407.922485351562	-496.0132751464844	-900.4593505859375	1574.331787109375	-674.955322265625	-806.1835327148438	1557.053955078125	-731.3652954101562	-824.6046752929688	1428.055541992188	-808.3857421875	-832.1909790039062	1208.11669921875	-829.9630737304688	-906.4003295898438	1204.0146484375	-785.3643798828125	-768.7901611328125	941.79931640625	-768.8569946289062	-844.2809448242188	924.3163452148438	-809.94287109375	-826.2553100585938	1090.389526367188	-831.23876953125	-780.822509765625	748.4227905273438	-745.1616821289062	-824.4139404296875	846.751220703125	-804.2305297851562	-762.2557373046875	851.6275024414062	-775.6871337890625	-877.15966796875	1567.063110351562	-385.1300048828125	-906.4832153320312	1493.9609375	-326.1055908203125	-941.0165405273438	1201.324584960938	-314.4399719238281	-927.8695678710938	1201.71826171875	-410.9723510742188	-808.5977172851562	951.6145629882812	-307.0769348144531	-887.1283569335938	938.2947387695312	-287.9635314941406	-924.2296142578125	1126.997680664062	-296.1084594726562	-792.3218994140625	755.5487670898438	-324.8852233886719	-786.0001220703125	842.02001953125	-299.9977722167969	-856.2470703125	836.5988159179688	-280.8009033203125	-876.890380859375	1755.861694335938	-487.5606994628906	-683.5175170898438	1822.8359375	-565.8257446289062	-717.7811279296875	1815.380859375	-440.8642578125	-849.1076049804688	1767.676025390625	-619.79150390625	-824.9627685546875	1019.605895996094	-725.1824340820312	-806.3639526367188	1018.579956054688	-361.213134765625	-723.8123779296875	1085.466186523438	-413.8277893066406	-715.036376953125	1079.75244140625	-677.6514282226562	-823.8226318359375	505.4508666992188	-711.445068359375	-833.7161865234375	660.2584838867188	-727.4225463867188	-1238.985961914062	162.3684234619141	-710.7579956054688	-1055.148071289062	355.4267578125	-733.9725952148438	-1093.258178710938	25.03119659423828	-631.4231567382812	-1143.828125	65.62469482421875	-609.4125366210938	-1170.919799804688	59.01035690307617	-718.9487915039062	-1274.9619140625	225.6967620849609	-654.8151245117188	-720.9459838867188	535.5933227539062	-429.4309692382812	-729.4081420898438	22.58614349365234	-503.7232360839844	-721.6251220703125	400.0112915039062	-431.0837097167969	-494.8490600585938	50.45334625244141	-519.8994140625	-546.1729125976562	41.28155517578125	-572.6622314453125	-601.044921875	39.03476715087891	-465.1963806152344	-777.2100219726562	27.95406913757324	-559.175537109375	-755.2603759765625	807.7109375	-375.2449951171875	nan	nan	nan	
200	1.99	-918.0769653320312	1115.124145507812	-485.8782348632812	-908.6044311523438	1114.26220703125	-621.3517456054688	-917.3836669921875	1152.627685546875	-557.7823486328125	-692.1593627929688	1340.777954101562	-536.3779296875	-947.4645385742188	1301.705322265625	-564.6828002929688	-900.8058471679688	1593.1630859375	-570.6444091796875	-723.9487915039062	1476.86865234375	-539.841796875	-969.8726196289062	1408.006225585938	-494.1868896484375	-892.3269653320312	1574.851928710938	-672.7424926757812	-797.7582397460938	1557.819702148438	-728.74169921875	-815.5089721679688	1428.816040039062	-805.9671630859375	-821.7993774414062	1208.915771484375	-827.9521484375	-896.377685546875	1204.229736328125	-783.7964477539062	-755.8086547851562	943.555908203125	-766.1956176757812	-830.7423095703125	924.9835815429688	-807.7583618164062	-814.7968139648438	1091.231689453125	-829.127197265625	-765.143798828125	750.0812377929688	-742.707275390625	-810.07763671875	847.9002075195312	-801.9183349609375	-748.026611328125	853.5728759765625	-773.0228271484375	-870.0256958007812	1567.330932617188	-382.7796936035156	-899.2542114257812	1494.016845703125	-323.9256286621094	-932.2247314453125	1201.148681640625	-311.9002685546875	-919.077392578125	1201.52783203125	-408.4832153320312	-796.2832641601562	953.3775024414062	-304.033203125	-874.6507568359375	938.8159790039062	-285.0657043457031	-914.5863647460938	1126.951171875	-293.4697570800781	-776.84912109375	757.5239868164062	-321.4421691894531	-771.9651489257812	844.1906127929688	-296.6625061035156	-842.16552734375	837.6436157226562	-277.677978515625	-869.965576171875	1756.423950195312	-485.3226928710938	-676.2621459960938	1823.621337890625	-562.499267578125	-711.2337646484375	1816.176635742188	-437.7300720214844	-841.4302368164062	1768.2412109375	-617.3757934570312	-815.0501098632812	1019.801818847656	-723.0822143554688	-798.853271484375	1019.183288574219	-359.164794921875	-715.861083984375	1086.104614257812	-411.1264343261719	-705.903076171875	1080.562744140625	-674.9177856445312	-803.5214233398438	505.3073425292969	-711.1111450195312	-816.7119750976562	660.1361083984375	-726.6559448242188	-1225.752685546875	171.1990966796875	-713.9928588867188	-1036.756103515625	358.9174499511719	-735.3767700195312	-1088.556762695312	24.13794136047363	-633.4256591796875	-1136.26123046875	69.70133209228516	-611.8319091796875	-1162.9677734375	64.05644989013672	-721.43408203125	-1258.9990234375	236.0534210205078	-658.38330078125	-716.871337890625	535.2410888671875	-427.7601623535156	-729.24755859375	22.66366577148438	-503.7176208496094	-718.7058715820312	399.6689453125	-429.876953125	-494.2621765136719	49.20759582519531	-519.7677612304688	-545.8128051757812	40.85121917724609	-572.7269897460938	-600.7271118164062	38.67176055908203	-465.217529296875	-777.1018676757812	27.82735824584961	-559.236572265625	-749.2919311523438	807.8391723632812	-373.2245788574219	nan	nan	nan	
